<svg id="Capa_1" enable-background="new 0 0 512 512" height="512" viewBox="0 0 512 512" width="512" xmlns="http://www.w3.org/2000/svg" xmlns:xlink="http://www.w3.org/1999/xlink"><linearGradient id="SVGID_1_" gradientUnits="userSpaceOnUse" x1="256" x2="256" y1="598.193" y2="61.049"><stop offset=".0023" stop-color="#ffc599"/><stop offset=".992" stop-color="#ffe8dc" stop-opacity="0"/></linearGradient><linearGradient id="SVGID_2_" gradientUnits="userSpaceOnUse" x1="306.99" x2="306.99" y1="433.2" y2="171.03"><stop offset="0" stop-color="#ff4d4d" stop-opacity=".4"/><stop offset="1" stop-color="#ff4d4d" stop-opacity="0"/></linearGradient><g><path d="m465.257 164.114c-14.861-17.312-24.645-38.356-29.219-60.708-3.878-18.954-12.095-35.401-24.961-48.267-58.773-58.773-192.264-20.572-298.161 85.325s-144.097 239.387-85.324 298.16c27.937 27.937 72.756 33.955 123.469 21.212 29.453-7.401 60.532-4.287 88.29 8.03 23.202 10.295 48.799 16.173 75.724 16.566 105.676 1.543 193.748-82.552 196.839-188.195 1.479-50.505-16.354-96.822-46.657-132.123z" fill="url(#SVGID_1_)"/><g><g><g><g><path d="m438.735 433.2h-263.49c-5.42 0-9.62-4.75-8.94-10.13l28.52-227.47 2.09-16.67c.56-4.51 4.39-7.9 8.94-7.9h202.27c4.55 0 8.38 3.39 8.95 7.9l30.6 244.14c.68 5.38-3.52 10.13-8.94 10.13z" fill="#ff9d33"/><path d="m223.075 171.03c-3.81 12.8-14.77 22.53-28.25 24.57l2.09-16.67c.56-4.51 4.39-7.9 8.94-7.9z" fill="#ff8b00"/><path d="m365.664 271.999-21.713 21.713c-1.953 1.953-5.118 1.953-7.071 0l-30.835-30.835c-1.098-1.098-1.623-2.643-1.422-4.182l2.505-19.208c.293-2.249 2.063-4.018 4.311-4.311l19.208-2.505c1.539-.201 3.085.325 4.182 1.423l30.835 30.835c1.953 1.952 1.953 5.118 0 7.07z" fill="#ff8b00"/><path d="m440.715 367.52h-267.45l5.28-42.09h256.89z" fill="#ffc599"/><g><path d="m383.335 406.908h-132.5c-2.762 0-5-2.239-5-5s2.238-5 5-5h132.5c2.762 0 5 2.239 5 5s-2.238 5-5 5z" fill="#ff7300"/></g><path d="m373.146 196.271v-77.315c0-36.479-29.677-66.156-66.156-66.156s-66.156 29.678-66.156 66.156v77.315h10v-77.315c0-30.965 25.191-56.156 56.156-56.156 30.964 0 56.156 25.191 56.156 56.156v77.315z" fill="#6c6cff"/><g fill="#ff7300"><circle cx="245.835" cy="205.75" r="11.266"/><circle cx="368.146" cy="205.75" r="11.266"/></g><path d="m365.664 257.999-21.713 21.713c-1.953 1.953-5.118 1.953-7.071 0l-30.835-30.835c-1.098-1.098-1.623-2.643-1.422-4.182l2.505-19.208c.293-2.249 2.063-4.018 4.311-4.311l19.208-2.505c1.539-.201 3.085.325 4.182 1.423l30.835 30.835c1.953 1.952 1.953 5.118 0 7.07z" fill="#ff2c2c"/></g><g><circle cx="189.559" cy="149.272" fill="#ff4d4d" r="34.972"/><path d="m316.84 171.03v59.437c0 2.762 2.239 5 5 5s5-2.238 5-5v-54.434-10-4.899c0-9.007-7.327-16.334-16.333-16.334s-16.333 7.327-16.333 16.334v9.896h10v-9.896c0-3.492 2.841-6.334 6.333-6.334s6.333 2.842 6.333 6.334v4.899" fill="#6c6cff"/><path d="m217.777 238.252c0-14.739-7.467-27.765-18.814-35.5-2.871-2.012-6.071-3.571-9.469-4.861-4.576-1.667-9.511-2.578-14.656-2.578-23.677 0-42.939 19.263-42.939 42.939v50.471c0 2.762 2.239 5 5 5s5-2.238 5-5v-50.471c0-18.163 14.776-32.939 32.939-32.939 4.759 0 9.28 1.023 13.369 2.846 3.582 1.466 6.752 3.453 9.298 6.227 6.32 6.006 10.273 14.48 10.273 23.867v50.471c0 2.762 2.239 5 5 5s5-2.238 5-5v-50.472z" fill="#6c6cff"/><g fill="#fff"><path d="m189.56 166.017c-2.761 0-5-2.238-5-5v-23.489c0-2.762 2.239-5 5-5s5 2.238 5 5v23.489c0 2.761-2.239 5-5 5z"/><path d="m201.304 154.271h-23.489c-2.761 0-5-2.238-5-5s2.239-5 5-5h23.489c2.761 0 5 2.238 5 5s-2.239 5-5 5z"/></g></g></g><path d="m438.735 433.2h-263.49c-5.42 0-9.62-4.75-8.94-10.13l28.52-227.47 2.09-16.67c.56-4.51 4.39-7.9 8.94-7.9h202.27c4.55 0 8.38 3.39 8.95 7.9l30.6 244.14c.68 5.38-3.52 10.13-8.94 10.13z" fill="url(#SVGID_2_)"/><path d="m103.84 279.573v144.614c0 4.978 4.035 9.013 9.013 9.013h123.968c4.978 0 9.013-4.035 9.013-9.013v-144.614c0-4.978-4.035-9.013-9.013-9.013h-123.967c-4.978-.001-9.014 4.035-9.014 9.013z" fill="#fff"/><path d="m212.277 342.8h-74.879c-2.761 0-5-2.239-5-5v-25c0-2.761 2.239-5 5-5h74.879c2.761 0 5 2.239 5 5v25c0 2.761-2.239 5-5 5z" fill="#ff2c2c"/><g><path d="m196.088 330.3h-42.5c-2.762 0-5-2.239-5-5s2.238-5 5-5h42.5c2.762 0 5 2.239 5 5s-2.238 5-5 5z" fill="#fff"/></g></g><path d="m73.253 267.917c-1.28 0-2.559-.488-3.536-1.465-1.953-1.952-1.953-5.118 0-7.07l10-10c1.953-1.953 5.118-1.953 7.071 0 1.953 1.952 1.953 5.118 0 7.07l-10 10c-.976.977-2.255 1.465-3.535 1.465z" fill="#ff6c6c"/><path d="m191.955 78.912c-1.28 0-2.559-.488-3.536-1.465-1.953-1.952-1.953-5.118 0-7.07l10-10c1.953-1.953 5.118-1.953 7.071 0 1.953 1.952 1.953 5.118 0 7.07l-10 10c-.976.977-2.256 1.465-3.535 1.465z" fill="#ff6c6c"/><g><path d="m426.795 139.057c-1.28 0-2.559-.488-3.536-1.465l-6.464-6.464-6.464 6.464c-1.953 1.953-5.118 1.953-7.071 0-1.953-1.952-1.953-5.118 0-7.07l10-10c1.953-1.953 5.118-1.953 7.071 0l10 10c1.953 1.952 1.953 5.118 0 7.07-.977.976-2.256 1.465-3.536 1.465z" fill="#ff9d33"/></g><g><path d="m448.747 176.017c-1.28 0-2.559-.488-3.536-1.465-1.953-1.952-1.953-5.118 0-7.07l10-10c1.953-1.953 5.118-1.953 7.071 0 1.953 1.952 1.953 5.118 0 7.07l-10 10c-.976.976-2.255 1.465-3.535 1.465z" fill="#6c6cff"/><g><path d="m73.253 401.721c-1.28 0-2.559-.488-3.536-1.465l-6.464-6.464-6.464 6.464c-1.953 1.953-5.118 1.953-7.071 0-1.953-1.952-1.953-5.118 0-7.07l10-10c1.953-1.953 5.118-1.953 7.071 0l10 10c1.953 1.952 1.953 5.118 0 7.07-.977.976-2.256 1.465-3.536 1.465z" fill="#ff9d33"/></g></g></g></g></svg>